<?xml version="1.0" standalone="no"?>
<!DOCTYPE svg PUBLIC "-//W3C//DTD SVG 1.1//EN" "http://www.w3.org/Graphics/SVG/1.1/DTD/svg11.dtd"><svg t="1757868497828"
  class="icon" viewBox="0 0 1024 1024" version="1.1" xmlns="http://www.w3.org/2000/svg" p-id="19836"
  xmlns:xlink="http://www.w3.org/1999/xlink" width="200" height="200">
  <path
    d="M242.882809 51.108572c48.761599 63.159103 98.12117 125.468728 146.356657 188.630397 0.800717 0.826381 1.35121 1.625814 2.18144 2.426531a91.107199 91.107199 0 0 1 14.610515 30.641533 94.643698 94.643698 0 0 1 2.201971 37.120409 89.858645 89.858645 0 0 1-12.484253 35.219989 20.257878 20.257878 0 0 0-1.625814 2.200688 85.916655 85.916655 0 0 1-23.592915 24.914611 4.133187 4.133187 0 0 1-1.876038 1.650195c-24.12416 17.334749-47.709375 34.669497-71.552514 52.028627-4.628502 10.280998-9.781833 33.043683 9.731788 60.958415a989.656436 989.656436 0 0 0 104.652658 125.218503h0.524829a902.007461 902.007461 0 0 0 124.666727 104.882351c28.220134 19.50464 50.961004 14.62848 61.26895 10.00896 17.913472-24.914611 35.801279-49.577714 53.689087-73.415721a93.100008 93.100008 0 0 1 27.120432-25.489484 86.712239 86.712239 0 0 1 35.225122-12.205798 1.587318 1.587318 0 0 1 1.076605-0.275888 101.886078 101.886078 0 0 1 36.326108 2.201971c0.526112 0.250224 1.075322 0.250224 1.901703 0.524829a92.801023 92.801023 0 0 1 31.147113 16.259426c62.921711 48.504959 125.517489 97.578376 188.66376 146.079486a14.342326 14.342326 0 0 1 2.7268 2.977024 83.037154 83.037154 0 0 1 22.766534 27.914733 96.506904 96.506904 0 0 1 10.00896 39.022111 87.154943 87.154943 0 0 1-6.48016 39.296716c-5.153331 12.205798-12.734477 23.86752-23.041139 32.792176a238.466035 238.466035 0 0 1-44.985142 34.139535 7.582429 7.582429 0 0 1-2.18144 0.825098 283.0598 283.0598 0 0 1-61.820725 28.164956c-103.800613 34.444937-214.13143 28.19062-320.384238-7.0576-112.231237-37.645238-220.085478-107.583486-308.750747-195.631536-88.613941-88.648587-158.565022-196.758186-195.944637-308.69557C9.761302 368.458042 3.782874 257.347039 37.957055 153.840279a297.106991 297.106991 0 0 1 29.246694-63.710879v-0.274605a250.263775 250.263775 0 0 1 33.61984-45.24948 81.79245 81.79245 0 0 1 33.078329-22.48808c0.800717-1.075322 2.18144-1.075322 3.252912-1.625815a89.58404 89.58404 0 0 1 36.326108-4.903107c33.600591 1.100986 46.335068 11.93376 69.401871 35.518976z m86.18741 235.228521q-73.215541-93.912274-146.356657-188.353226v-0.274605a21.52183 21.52183 0 0 0-4.378278-4.052345 1.177978 1.177978 0 0 1-1.076605-1.075322 31.62318 31.62318 0 0 0-7.0576-1.351209 24.738812 24.738812 0 0 0-6.478877 0.550493 1.396122 1.396122 0 0 1-1.100985 0.250224c-2.151926 1.625814-3.803405 2.7268-5.954048 4.602838-8.131638 8.40496-16.261993 19.50464-24.393632 32.517571-8.403677 13.551875-15.707651 30.09104-21.963251 48.000661-29.00032 87.523221-23.567251 181.572797 6.780429 273.149647 34.174182 100.581064 97.320453 197.834791 177.829703 278.353023 80.783855 81.019964 178.079927 143.878798 278.653291 178.047847 91.592248 30.092323 185.386468 35.770483 272.398975 7.0576a215.666137 215.666137 0 0 0 46.884278-21.711744 2.24945 2.24945 0 0 0 1.627098-0.800717c13.559574-7.854467 24.418012-15.983539 32.548367-24.663103a17.242358 17.242358 0 0 0 4.328234-4.853063v-0.574873c1.075322-1.876038 1.075322-4.602838 1.075321-7.554199a15.84752 15.84752 0 0 0-1.60015-7.057599v-0.275888a36.650758 36.650758 0 0 0-3.277293-4.051063 2.756314 2.756314 0 0 1-1.601433-1.126649c-62.921711-49.025938-125.767713-98.103205-188.663761-146.604315a49.766345 49.766345 0 0 0-4.903107-2.452195 1.841392 1.841392 0 0 0-1.075321-0.524829 12.553545 12.553545 0 0 0-6.505824-0.550493 18.47808 18.47808 0 0 0-6.504541 2.7268 10.13728 10.13728 0 0 0-4.853062 4.326951c-19.514905 26.56224-39.054191 53.103948-58.017321 79.143925a32.284028 32.284028 0 0 1-12.459872 11.3807s-67.222997 48.226505-149.63395-8.929788a1010.114493 1010.114493 0 0 1-135.824151-113.563198 1014.778925 1014.778925 0 0 1-113.033237-135.525166c-57.441164-82.124799-9.731789-149.607002-9.731788-149.607003a30.332281 30.332281 0 0 1 10.532505-11.3807c25.769222-18.936182 51.813049-37.921126 77.806831-56.631465a21.30112 21.30112 0 0 1 2.7268-2.18144c1.601434-1.349926 3.252912-2.426531 3.803405-4.052346 0.524829-0.274605 0.524829-0.825098 0.800716-0.825097a39.496895 39.496895 0 0 0 2.452196-6.478877 24.881248 24.881248 0 0 0-0.550493-6.777862 16.159337 16.159337 0 0 0-2.18144-4.87616c-0.524829-0.524829-0.524829-0.825098-1.075322-1.37559z"
    fill="#666666" p-id="19837"></path>
</svg>