<?xml version="1.0" standalone="no"?><!DOCTYPE svg PUBLIC "-//W3C//DTD SVG 1.1//EN" "http://www.w3.org/Graphics/SVG/1.1/DTD/svg11.dtd"><svg t="1757866045061" class="icon" viewBox="0 0 1075 1024" version="1.1" xmlns="http://www.w3.org/2000/svg" p-id="17968" xmlns:xlink="http://www.w3.org/1999/xlink" width="209.9609375" height="200"><path d="M611.2256 184.064H545.792a19.6608 19.6608 0 0 0-19.8656 19.4048v66.048c0 10.752 8.9088 19.456 19.8656 19.456h65.4336c10.9568 0 19.8656-8.704 19.8656-19.456v-66.048a19.6608 19.6608 0 0 0-19.8656-19.4048z m0 210.0736H545.792a19.7632 19.7632 0 0 0-19.8656 19.6608v65.4848c0 10.8544 8.9088 19.6608 19.8656 19.6608h65.4336a19.7632 19.7632 0 0 0 19.8656-19.6608V413.7984a19.7632 19.7632 0 0 0-19.8656-19.6608z m426.1376 577.0752h-64.4096v-297.0624c0-53.504-48.2816-96.8704-102.656-96.8704H815.104V89.4464C815.104 40.0384 774.4 0 724.224 0H196.4032c-50.176 0-90.88 40.0384-90.88 89.4464v881.7664H37.888c-20.9408 0-37.888 6.8096-37.888 27.4432v-0.4608c0 20.5824 16.9472 25.8048 37.888 25.8048h999.4752c20.8896 0 37.8368-8.4992 37.8368-29.0816v2.048c0-20.5824-16.9472-25.7536-37.8368-25.7536z m-301.8752-14.0288a15.0016 15.0016 0 0 1-15.104 14.8992h-100.5056a15.0016 15.0016 0 0 1-15.104-14.8992v-128.8192c0-8.2432 6.7584-14.8992 15.104-14.8992h100.4544c8.3968 0 15.1552 6.656 15.1552 14.8992v128.8192z m0-210.688a15.0528 15.0528 0 0 1-15.104 14.9504h-100.5056a15.0528 15.0528 0 0 1-15.104-14.9504v-100.608c0-8.2432 6.7584-15.7184 15.104-15.7184h100.4544c8.3968 0 15.1552 6.656 15.1552 14.8992v101.4272z m26.9824-169.216h-114.5856c-54.3744 0-95.1296 43.3664-95.1296 96.8704v297.0624H157.952V112.0768c0-32.9216 27.136-59.648 60.5696-59.648h483.3792c33.4336 0 60.5696 26.7264 60.5696 59.648v465.2032z m157.8496 379.904a15.0528 15.0528 0 0 1-15.1552 14.8992h-101.2736a15.0016 15.0016 0 0 1-15.1552-14.8992v-128.8192c0-8.2432 6.8096-14.8992 15.1552-14.8992h101.2736c8.3968 0 15.1552 6.656 15.1552 14.8992v128.8192z m0-210.688a15.0528 15.0528 0 0 1-15.1552 14.9504h-101.2736a15.0528 15.0528 0 0 1-15.1552-14.9504v-101.4272c0-8.2432 6.8096-14.8992 15.1552-14.8992h101.2736c8.3968 0 15.1552 6.656 15.1552 14.8992v101.4272zM374.7328 394.1376H308.8384a19.712 19.712 0 0 0-19.7632 19.6608v65.4848c0 10.8544 8.8576 19.6608 19.7632 19.6608h65.8944a19.712 19.712 0 0 0 19.7632-19.6608V413.7984a19.712 19.712 0 0 0-19.7632-19.6608z m0-210.0736H308.8384a19.6096 19.6096 0 0 0-19.7632 19.4048v66.048c0 10.752 8.8576 19.456 19.7632 19.456h65.8944c10.9056 0 19.7632-8.704 19.7632-19.456v-66.048a19.6096 19.6096 0 0 0-19.7632-19.4048z m0 420.3008H308.8384a19.6096 19.6096 0 0 0-19.7632 19.4048v66.048c0 10.752 8.8576 19.456 19.7632 19.456h65.8944c10.9056 0 19.7632-8.704 19.7632-19.456v-66.048a19.6096 19.6096 0 0 0-19.7632-19.4048z" fill="#ffffff" p-id="17969"></path></svg>