<svg xmlns="http://www.w3.org/2000/svg" width="41" height="24" viewBox="0 0 41 24" fill="none">
  <g clip-path="url(#clip0_4_129)">
    <path
      d="M0 12.6349L1.37165 14.7904C1.37165 14.7904 13.9125 12.0471 23.9059 16.5539C23.9059 16.5539 11.5611 13.6147 2.3514 16.162L3.72306 18.5134C3.72306 18.5134 21.9464 14.2025 33.1156 24L36.0549 23.4122C36.0549 23.4122 32.1359 14.9863 20.3788 12.6349C8.62182 10.2835 0 12.6349 0 12.6349Z"
      fill="#578DFF" />
    <path opacity="0.3"
      d="M19.0463 11.2495C22.2384 11.8099 25.6283 12.8034 28.693 14.5141C28.693 14.5141 28.4069 14.3024 26.4533 13.8106C29.3377 15.1744 33.5055 17.7766 37.0346 23.1594L40.3657 22.5715C40.3657 22.5715 37.0268 13.6558 25.5147 10.307C22.8478 9.53104 20.3259 9.02157 18.0274 8.69629C18.6153 9.89159 18.6153 10.0875 19.0463 11.2495Z"
      fill="#35BFFF" />
    <path
      d="M17.8315 11.0673L16.8517 8.51995C16.8517 8.51995 14.1084 7.9321 12.3449 8.12805C12.3449 8.12805 11.757 8.12805 14.5003 7.73615C15.9778 7.52453 21.9445 6.46835 25.6695 4.7969C28.8576 3.36646 29.7845 1.26979 29.7845 1.26979L27.4331 0.290039C27.4331 0.290039 25.2776 2.64144 24.6897 2.64144C24.6897 2.64144 25.4735 1.26979 25.2776 1.07384L22.7302 0.485989C22.7302 0.485989 22.1424 2.24954 20.5748 3.42524C20.5748 3.42524 21.2547 1.74595 21.0137 1.21297H18.4193C18.4193 1.21297 18.2234 3.22929 16.6558 4.0131C15.0882 4.7969 8.39843 7.03073 7.25016 7.5402C6.57806 7.84001 5.83932 8.47097 5.81189 9.26848C5.78446 10.066 6.60353 10.4403 7.29719 10.4716C8.45722 10.5265 9.61529 10.4599 10.7753 10.4795C11.9608 10.501 13.1483 10.5324 14.3318 10.6205C15.5036 10.7068 16.6813 10.8243 17.8334 11.0673H17.8315Z"
      fill="#578DFF" />
    <path opacity="0.3"
      d="M18.0274 7.73018C18.6564 7.82228 19.2854 7.90654 19.9105 8.01627C21.0803 8.22006 22.2462 8.43756 23.4023 8.70797C24.5467 8.97447 25.691 9.27427 26.7923 9.69164L26.2201 7.0228C26.2201 7.0228 24.6897 6.47022 23.1221 6.16846C23.1221 6.16846 19.595 7.54011 18.0274 7.73018Z"
      fill="#35BFFF" />
    <path opacity="0.3"
      d="M23.6806 5.87851C23.5767 5.90398 23.9001 5.88047 24.0176 5.88243C25.5108 5.90398 26.4317 6.26061 30.3723 5.18877C33.7427 4.27172 35.467 1.85761 35.7002 0.975833L33.2743 0C33.2743 0 32.42 1.6499 30.6878 2.56891C30.6878 2.56891 31.744 1.66166 31.744 0.485957C31.744 0.485957 31.9399 0.485957 30.3723 0.0940562C30.2057 1.25408 28.2169 4.79686 23.6806 5.87851Z"
      fill="#35BFFF" />
  </g>
  <defs>
    <clipPath id="clip0_4_129">
      <rect width="40.3658" height="24" fill="white" />
    </clipPath>
  </defs>
</svg>