<svg width="156" height="24" viewBox="0 0 156 24" fill="none" xmlns="http://www.w3.org/2000/svg">
<g clip-path="url(#clip0_0_1)">
<path d="M0 12.6349L1.37165 14.7904C1.37165 14.7904 13.9125 12.0471 23.9059 16.5539C23.9059 16.5539 11.5611 13.6147 2.3514 16.162L3.72306 18.5134C3.72306 18.5134 21.9464 14.2025 33.1156 24L36.0549 23.4122C36.0549 23.4122 32.1359 14.9863 20.3788 12.6349C8.62182 10.2835 0 12.6349 0 12.6349Z" fill="#578DFF"/>
<path opacity="0.3" d="M19.0464 11.2495C22.2384 11.8099 25.6284 12.8034 28.693 14.5141C28.693 14.5141 28.407 14.3024 26.4533 13.8106C29.3377 15.1744 33.5056 17.7766 37.0346 23.1594L40.3658 22.5715C40.3658 22.5715 37.0268 13.6558 25.5147 10.307C22.8478 9.53104 20.326 9.02157 18.0275 8.69629C18.6153 9.89159 18.6153 10.0875 19.0464 11.2495Z" fill="#35BFFF"/>
<path d="M17.8314 11.0673L16.8517 8.51995C16.8517 8.51995 14.1084 7.9321 12.3448 8.12805C12.3448 8.12805 11.757 8.12805 14.5003 7.73615C15.9777 7.52453 21.9444 6.46835 25.6694 4.7969C28.8575 3.36646 29.7844 1.26979 29.7844 1.26979L27.433 0.290039C27.433 0.290039 25.2775 2.64144 24.6897 2.64144C24.6897 2.64144 25.4735 1.26979 25.2775 1.07384L22.7302 0.485989C22.7302 0.485989 22.1423 2.24954 20.5747 3.42524C20.5747 3.42524 21.2547 1.74595 21.0137 1.21297H18.4193C18.4193 1.21297 18.2233 3.22929 16.6557 4.0131C15.0881 4.7969 8.39837 7.03073 7.2501 7.5402C6.57799 7.84001 5.83926 8.47097 5.81183 9.26848C5.7844 10.066 6.60347 10.4403 7.29713 10.4716C8.45716 10.5265 9.61522 10.4599 10.7753 10.4795C11.9608 10.501 13.1482 10.5324 14.3317 10.6205C15.5035 10.7068 16.6812 10.8243 17.8334 11.0673H17.8314Z" fill="#578DFF"/>
<path opacity="0.3" d="M18.0275 7.73018C18.6565 7.82228 19.2855 7.90654 19.9105 8.01627C21.0804 8.22006 22.2463 8.43756 23.4024 8.70797C24.5467 8.97447 25.6911 9.27427 26.7923 9.69164L26.2201 7.0228C26.2201 7.0228 24.6898 6.47022 23.1222 6.16846C23.1222 6.16846 19.5951 7.54011 18.0275 7.73018Z" fill="#35BFFF"/>
<path opacity="0.3" d="M23.6805 5.87851C23.5767 5.90398 23.9 5.88047 24.0176 5.88243C25.5107 5.90398 26.4317 6.26061 30.3722 5.18877C33.7426 4.27172 35.467 1.85761 35.7001 0.975833L33.2743 0C33.2743 0 32.4199 1.6499 30.6877 2.56891C30.6877 2.56891 31.7439 1.66166 31.7439 0.485957C31.7439 0.485957 31.9398 0.485957 30.3722 0.0940562C30.2057 1.25408 28.2168 4.79686 23.6805 5.87851Z" fill="#35BFFF"/>
</g>
<path d="M143.764 19.2V5.76001H150.848C151.732 5.76001 152.512 5.95201 153.191 6.33601C153.882 6.70721 154.426 7.21921 154.823 7.87201C155.22 8.52481 155.418 9.27361 155.418 10.1184C155.418 10.9248 155.22 11.6544 154.823 12.3072C154.426 12.9472 153.882 13.4528 153.191 13.824C152.5 14.1952 151.719 14.3808 150.848 14.3808H147.066V19.2H143.764ZM147.066 11.6544H150.464C150.951 11.6544 151.341 11.5136 151.636 11.232C151.93 10.9504 152.077 10.5856 152.077 10.1376C152.077 9.67681 151.93 9.30561 151.636 9.02401C151.341 8.72961 150.951 8.58241 150.464 8.58241H147.066V11.6544Z" fill="white" fill-opacity="0.4"/>
<path d="M131.145 19.2V5.76001H141.743V8.62081H134.447V11.04H139.266V13.8048H134.447V16.3392H141.82V19.2H131.145Z" fill="white" fill-opacity="0.4"/>
<path d="M118.526 19.2V5.76001H129.125V8.62081H121.829V11.04H126.648V13.8048H121.829V16.3392H129.201V19.2H118.526Z" fill="white" fill-opacity="0.4"/>
<path d="M104.164 19.2V5.76001H107.466V10.9248H112.996V5.76001H116.298V19.2H112.996V13.9392H107.466V19.2H104.164Z" fill="white" fill-opacity="0.4"/>
<path d="M96.761 19.3921C95.673 19.3921 94.5978 19.1937 93.5354 18.7969C92.473 18.4001 91.5258 17.8497 90.6938 17.1457L92.537 14.7457C93.3562 15.4113 94.1114 15.8913 94.8026 16.1857C95.4938 16.4673 96.2298 16.6081 97.0106 16.6081C97.5226 16.6081 97.9578 16.5569 98.3162 16.4545C98.6746 16.3521 98.9498 16.2049 99.1418 16.0129C99.3338 15.8081 99.4298 15.5713 99.4298 15.3025C99.4298 14.9313 99.289 14.6433 99.0074 14.4385C98.7258 14.2337 98.2458 14.0737 97.5674 13.9585L94.6106 13.4401C93.5226 13.2481 92.6842 12.8321 92.0954 12.1921C91.5066 11.5521 91.2122 10.7393 91.2122 9.75372C91.2122 8.88332 91.4298 8.13452 91.865 7.50732C92.313 6.88012 92.9466 6.40012 93.7658 6.06732C94.5978 5.73452 95.5834 5.56812 96.7226 5.56812C97.721 5.56812 98.7258 5.74092 99.737 6.08652C100.748 6.41932 101.625 6.88652 102.367 7.48812L100.62 9.92652C99.2378 8.86411 97.8618 8.33292 96.4922 8.33292C96.0442 8.33292 95.6538 8.38411 95.321 8.48652C95.001 8.57612 94.7514 8.71052 94.5722 8.88972C94.4058 9.05612 94.3226 9.26092 94.3226 9.50412C94.3226 9.83692 94.4442 10.0929 94.6874 10.2721C94.9434 10.4513 95.353 10.5921 95.9162 10.6945L98.7002 11.1553C99.993 11.3601 100.972 11.7889 101.638 12.4417C102.316 13.0945 102.655 13.9393 102.655 14.9761C102.655 15.8849 102.419 16.6721 101.945 17.3377C101.471 17.9905 100.793 18.4961 99.9098 18.8545C99.0266 19.2129 97.977 19.3921 96.761 19.3921Z" fill="white" fill-opacity="0.4"/>
<path d="M79.1207 19.4112C78.1095 19.4112 77.1687 19.2384 76.2983 18.8928C75.4279 18.5344 74.6663 18.0416 74.0135 17.4144C73.3607 16.7744 72.8487 16.0384 72.4775 15.2064C72.1191 14.3616 71.9399 13.4528 71.9399 12.48C71.9399 11.5072 72.1191 10.6048 72.4775 9.77283C72.8487 8.92803 73.3607 8.19203 74.0135 7.56483C74.6663 6.92483 75.4279 6.43203 76.2983 6.08643C77.1687 5.72803 78.1095 5.54883 79.1207 5.54883C80.1319 5.54883 81.0727 5.72803 81.9431 6.08643C82.8135 6.43203 83.5751 6.92483 84.2279 7.56483C84.8807 8.19203 85.3863 8.92803 85.7447 9.77283C86.1159 10.6048 86.3015 11.5072 86.3015 12.48C86.3015 13.4528 86.1159 14.3616 85.7447 15.2064C85.3863 16.0384 84.8807 16.7744 84.2279 17.4144C83.5751 18.0416 82.8135 18.5344 81.9431 18.8928C81.0727 19.2384 80.1319 19.4112 79.1207 19.4112ZM79.1207 16.3776C79.6583 16.3776 80.1575 16.2816 80.6183 16.0896C81.0791 15.8848 81.4759 15.6096 81.8087 15.264C82.1543 14.9184 82.4231 14.5088 82.6151 14.0352C82.8071 13.5488 82.9031 13.0304 82.9031 12.48C82.9031 11.9168 82.8071 11.3984 82.6151 10.9248C82.4231 10.4512 82.1543 10.0416 81.8087 9.69603C81.4759 9.35043 81.0791 9.08163 80.6183 8.88963C80.1575 8.68483 79.6583 8.58243 79.1207 8.58243C78.5831 8.58243 78.0839 8.68483 77.6231 8.88963C77.1623 9.08163 76.7591 9.35043 76.4135 9.69603C76.0807 10.0416 75.8183 10.4512 75.6263 10.9248C75.4343 11.3984 75.3383 11.9104 75.3383 12.4608C75.3383 13.024 75.4343 13.5488 75.6263 14.0352C75.8183 14.5088 76.0807 14.9184 76.4135 15.264C76.7591 15.6096 77.1623 15.8848 77.6231 16.0896C78.0839 16.2816 78.5831 16.3776 79.1207 16.3776Z" fill="#578DFF"/>
<path d="M56.4243 19.2L53.4291 5.76001H56.8275L58.4595 14.0544L60.8019 5.76001H63.8931L66.2355 14.0544L67.8675 5.76001H71.1507L68.1555 19.2H64.6611L62.2995 10.6368L59.9187 19.2H56.4243Z" fill="#578DFF"/>
<path d="M44.9425 19.2V8.67841H40.5457V5.76001H52.6417V8.67841H48.2449V19.2H44.9425Z" fill="#578DFF"/>
<defs>
<clipPath id="clip0_0_1">
<rect width="40.3658" height="24" fill="white"/>
</clipPath>
</defs>
</svg>
