<svg xmlns="http://www.w3.org/2000/svg" width="192" height="24" viewBox="0 0 192 24" fill="none">
  <path
    d="M172.03 22.752V0.35199H183.838C185.31 0.35199 186.611 0.67199 187.742 1.31199C188.894 1.93066 189.801 2.78399 190.462 3.87199C191.123 4.95999 191.454 6.20799 191.454 7.61599C191.454 8.95999 191.123 10.176 190.462 11.264C189.801 12.3307 188.894 13.1733 187.742 13.792C186.59 14.4107 185.289 14.72 183.838 14.72H177.534V22.752H172.03ZM177.534 10.176H183.198C184.009 10.176 184.659 9.94132 185.15 9.47199C185.641 9.00266 185.886 8.39466 185.886 7.64799C185.886 6.87999 185.641 6.26132 185.15 5.79199C184.659 5.30132 184.009 5.05599 183.198 5.05599H177.534V10.176Z"
    fill="#2D3441" />
  <path d="M150.999 22.752V0.35199H168.663V5.11999H156.503V9.15199H164.535V13.76H156.503V17.984H168.791V22.752H150.999Z"
    fill="#2D3441" />
  <path d="M129.968 22.752V0.35199H147.632V5.11999H135.472V9.15199H143.504V13.76H135.472V17.984H147.76V22.752H129.968Z"
    fill="#2D3441" />
  <path d="M106.03 22.752V0.35199H111.534V8.95999H120.75V0.35199H126.254V22.752H120.75V13.984H111.534V22.752H106.03Z"
    fill="#2D3441" />
  <path
    d="M93.6923 23.072C91.8789 23.072 90.0869 22.7413 88.3163 22.08C86.5456 21.4186 84.9669 20.5013 83.5803 19.328L86.6523 15.328C88.0176 16.4373 89.2763 17.2373 90.4283 17.728C91.5803 18.1973 92.8069 18.432 94.1083 18.432C94.9616 18.432 95.6869 18.3466 96.2843 18.176C96.8816 18.0053 97.3403 17.76 97.6603 17.44C97.9803 17.0986 98.1403 16.704 98.1403 16.256C98.1403 15.6373 97.9056 15.1573 97.4363 14.816C96.9669 14.4746 96.1669 14.208 95.0363 14.016L90.1083 13.152C88.2949 12.832 86.8976 12.1386 85.9163 11.072C84.9349 10.0053 84.4443 8.65065 84.4443 7.00798C84.4443 5.55732 84.8069 4.30932 85.5323 3.26398C86.2789 2.21865 87.3349 1.41865 88.7003 0.863983C90.0869 0.309316 91.7296 0.0319824 93.6283 0.0319824C95.2923 0.0319824 96.9669 0.319983 98.6523 0.895983C100.338 1.45065 101.799 2.22932 103.036 3.23198L100.124 7.29598C97.8203 5.52531 95.5269 4.63998 93.2443 4.63998C92.4976 4.63998 91.8469 4.72532 91.2923 4.89598C90.7589 5.04532 90.3429 5.26932 90.0443 5.56798C89.7669 5.84532 89.6283 6.18665 89.6283 6.59198C89.6283 7.14665 89.8309 7.57332 90.2363 7.87198C90.6629 8.17065 91.3456 8.40532 92.2843 8.57598L96.9243 9.34398C99.0789 9.68532 100.711 10.4 101.82 11.488C102.951 12.576 103.516 13.984 103.516 15.712C103.516 17.2267 103.122 18.5387 102.332 19.648C101.543 20.736 100.412 21.5786 98.9403 22.176C97.4683 22.7733 95.7189 23.072 93.6923 23.072Z"
    fill="#2D3441" />
  <path
    d="M64.2918 23.104C62.6065 23.104 61.0385 22.816 59.5878 22.24C58.1371 21.6427 56.8678 20.8213 55.7798 19.776C54.6918 18.7093 53.8385 17.4827 53.2198 16.096C52.6225 14.688 52.3238 13.1733 52.3238 11.552C52.3238 9.93067 52.6225 8.42667 53.2198 7.04C53.8385 5.632 54.6918 4.40533 55.7798 3.36C56.8678 2.29333 58.1371 1.472 59.5878 0.896C61.0385 0.298667 62.6065 0 64.2918 0C65.9771 0 67.5451 0.298667 68.9958 0.896C70.4465 1.472 71.7158 2.29333 72.8038 3.36C73.8918 4.40533 74.7345 5.632 75.3318 7.04C75.9505 8.42667 76.2598 9.93067 76.2598 11.552C76.2598 13.1733 75.9505 14.688 75.3318 16.096C74.7345 17.4827 73.8918 18.7093 72.8038 19.776C71.7158 20.8213 70.4465 21.6427 68.9958 22.24C67.5451 22.816 65.9771 23.104 64.2918 23.104ZM64.2918 18.048C65.1878 18.048 66.0198 17.888 66.7878 17.568C67.5558 17.2267 68.2171 16.768 68.7718 16.192C69.3478 15.616 69.7958 14.9333 70.1158 14.144C70.4358 13.3333 70.5958 12.4693 70.5958 11.552C70.5958 10.6133 70.4358 9.74933 70.1158 8.96C69.7958 8.17067 69.3478 7.488 68.7718 6.912C68.2171 6.336 67.5558 5.888 66.7878 5.568C66.0198 5.22667 65.1878 5.056 64.2918 5.056C63.3958 5.056 62.5638 5.22667 61.7958 5.568C61.0278 5.888 60.3558 6.336 59.7798 6.912C59.2251 7.488 58.7878 8.17067 58.4678 8.96C58.1478 9.74933 57.9878 10.6027 57.9878 11.52C57.9878 12.4587 58.1478 13.3333 58.4678 14.144C58.7878 14.9333 59.2251 15.616 59.7798 16.192C60.3558 16.768 61.0278 17.2267 61.7958 17.568C62.5638 17.888 63.3958 18.048 64.2918 18.048Z"
    fill="#578DFF" />
  <path
    d="M26.4645 22.752L21.4725 0.35199H27.1365L29.8565 14.176L33.7605 0.35199H38.9125L42.8165 14.176L45.5365 0.35199H51.0085L46.0165 22.752H40.1925L36.2565 8.47999L32.2885 22.752H26.4645Z"
    fill="#578DFF" />
  <path d="M7.328 22.752V5.21599H0V0.35199H20.16V5.21599H12.832V22.752H7.328Z" fill="#578DFF" />
</svg>